<svg xmlns="http://www.w3.org/2000/svg" xmlns:xlink="http://www.w3.org/1999/xlink" width="81" height="23" viewBox="0 0 81 23"><defs><path id="jgxxa" d="M95.5 563.23a10.27 10.27 0 1 1 0 20.54 10.27 10.27 0 0 1 0-20.54zm-8.37 10.27a8.37 8.37 0 1 0 16.74 0 8.37 8.37 0 0 0-16.74 0z"/><path id="jgxxb" d="M66.5 563.23a10.27 10.27 0 1 1 0 20.54 10.27 10.27 0 0 1 0-20.54zm-8.37 10.27a8.37 8.37 0 1 0 16.74 0 8.37 8.37 0 0 0-16.74 0z"/><path id="jgxxc" d="M37.74 563.23a10.27 10.27 0 1 1 0 20.54 10.27 10.27 0 0 1 0-20.54z"/></defs><g><g transform="translate(-26 -562)"><use fill="#fff" xlink:href="#jgxxa"/></g><g transform="translate(-26 -562)"><use fill="#fff" xlink:href="#jgxxb"/></g><g transform="translate(-26 -562)"><use fill="#fff" xlink:href="#jgxxc"/></g></g></svg>